<svg version="1.1" xmlns="http://www.w3.org/2000/svg" viewBox="0 0 1306.0691426764838 94.5" width="1306.0691426764838" height="94.5">
  <!-- svg-source:excalidraw -->
  
  <defs>
    <style class="style-fonts">
      @font-face {
        font-family: "Virgil";
        src: url("https://excalidraw.com/Virgil.woff2");
      }
      @font-face {
        font-family: "Cascadia";
        src: url("https://excalidraw.com/Cascadia.woff2");
      }
    </style>
  </defs>
  <rect x="0" y="0" width="1306.0691426764838" height="94.5" fill="#ffffff"></rect><g stroke-linecap="round" transform="translate(10 15.5) rotate(0 70 34.5)"><path d="M17.25 0 M17.25 0 C38.78 0.26, 62.55 -1.39, 122.75 0 M17.25 0 C53.58 -0.06, 90.27 -0.25, 122.75 0 M122.75 0 C132.88 -0.55, 140.25 6.56, 140 17.25 M122.75 0 C135.97 -2.02, 138.21 3.84, 140 17.25 M140 17.25 C139.61 27.12, 140.87 34.93, 140 51.75 M140 17.25 C139.58 30.01, 140.04 44.9, 140 51.75 M140 51.75 C140.45 61.66, 133.27 68.58, 122.75 69 M140 51.75 C141.95 63.12, 134.3 69.04, 122.75 69 M122.75 69 C83.36 69.79, 47.26 70.47, 17.25 69 M122.75 69 C81.96 69.53, 41.46 68.9, 17.25 69 M17.25 69 C5.27 70.04, -0.08 65.14, 0 51.75 M17.25 69 C6.84 69.05, -1.38 61.3, 0 51.75 M0 51.75 C0.77 45.18, -2.06 38.03, 0 17.25 M0 51.75 C-0.73 38.99, -0.57 26.03, 0 17.25 M0 17.25 C1.6 5.22, 3.86 0.82, 17.25 0 M0 17.25 C1.83 3.55, 5.59 -2.21, 17.25 0" stroke="#000000" stroke-width="1" fill="none"></path></g><g transform="translate(21.833332061767578 25) rotate(0 58.16666793823242 25)"><text x="58.16666793823242" y="0" font-family="Virgil, Segoe UI Emoji" font-size="20px" fill="#000000" text-anchor="middle" style="white-space: pre;" direction="ltr" dominant-baseline="text-before-edge">Download </text><text x="58.16666793823242" y="25" font-family="Virgil, Segoe UI Emoji" font-size="20px" fill="#000000" text-anchor="middle" style="white-space: pre;" direction="ltr" dominant-baseline="text-before-edge">Input Data</text></g><g stroke-linecap="round" transform="translate(210 14) rotate(0 70 34.5)"><path d="M17.25 0 M17.25 0 C55.55 -1.56, 90.45 -2.44, 122.75 0 M17.25 0 C55.82 -1.27, 91.84 -0.6, 122.75 0 M122.75 0 C135.84 -1.91, 139.87 3.83, 140 17.25 M122.75 0 C135 1.94, 138.98 7.23, 140 17.25 M140 17.25 C138.34 25.48, 139.06 37.44, 140 51.75 M140 17.25 C139.92 25.58, 140.38 34.65, 140 51.75 M140 51.75 C139.79 64.21, 133.04 69.36, 122.75 69 M140 51.75 C138.52 62.59, 134.03 69.16, 122.75 69 M122.75 69 C89.89 69.62, 55.7 69.43, 17.25 69 M122.75 69 C92.26 67.99, 63.09 68.4, 17.25 69 M17.25 69 C7.53 67.07, -0.24 62.23, 0 51.75 M17.25 69 C6.15 67.35, -0.06 61.32, 0 51.75 M0 51.75 C0.47 41.87, 0.51 31.83, 0 17.25 M0 51.75 C0.02 40.36, 0.81 28.54, 0 17.25 M0 17.25 C-1.99 3.78, 5.48 -0.54, 17.25 0 M0 17.25 C0.82 6.71, 4.12 -1.05, 17.25 0" stroke="#000000" stroke-width="1" fill="none"></path></g><g transform="translate(227.04999923706055 23.5) rotate(0 52.95000076293945 25)"><text x="52.95000076293945" y="0" font-family="Virgil, Segoe UI Emoji" font-size="20px" fill="#000000" text-anchor="middle" style="white-space: pre;" direction="ltr" dominant-baseline="text-before-edge">Download </text><text x="52.95000076293945" y="25" font-family="Virgil, Segoe UI Emoji" font-size="20px" fill="#000000" text-anchor="middle" style="white-space: pre;" direction="ltr" dominant-baseline="text-before-edge">True Color</text></g><g stroke-linecap="round" transform="translate(403 10) rotate(0 75.5 36)"><path d="M18 0 M18 0 C64.01 0.5, 110.68 2.07, 133 0 M18 0 C55.8 0.86, 94.23 1.55, 133 0 M133 0 C143.58 -0.92, 152.52 7.5, 151 18 M133 0 C147.14 1.41, 150.59 4.46, 151 18 M151 18 C150.42 29.42, 151.65 39.12, 151 54 M151 18 C150.21 29.56, 150.15 41.75, 151 54 M151 54 C151.86 67.04, 146.31 72.77, 133 72 M151 54 C152 66.24, 144.31 70.37, 133 72 M133 72 C102.03 70.96, 74.87 72.58, 18 72 M133 72 C108.5 72.71, 83.45 71.59, 18 72 M18 72 C4.24 72.98, 1.89 64.57, 0 54 M18 72 C5.85 70.82, -1.21 63.9, 0 54 M0 54 C-0.14 42.51, -0.21 33.96, 0 18 M0 54 C-0.06 47.2, -0.58 39.16, 0 18 M0 18 C-1.34 4.67, 4.45 -1.17, 18 0 M0 18 C1.16 7.05, 7.24 1.82, 18 0" stroke="#000000" stroke-width="1" fill="none"></path></g><g transform="translate(411.1083297729492 21) rotate(0 67.39167022705078 25)"><text x="67.39167022705078" y="0" font-family="Virgil, Segoe UI Emoji" font-size="20px" fill="#000000" text-anchor="middle" style="white-space: pre;" direction="ltr" dominant-baseline="text-before-edge">Import </text><text x="67.39167022705078" y="25" font-family="Virgil, Segoe UI Emoji" font-size="20px" fill="#000000" text-anchor="middle" style="white-space: pre;" direction="ltr" dominant-baseline="text-before-edge">Ground Truth</text></g><g stroke-linecap="round"><g transform="translate(154 49.5) rotate(0 28.56558090686798 0.014642648631678412)"><path d="M1.05 -1.05 C10.49 -1.23, 47.91 -0.69, 57 -0.38 M0.14 1.01 C9.49 0.95, 47.5 1.31, 56.57 0.96" stroke="#000000" stroke-width="1" fill="none"></path></g><g transform="translate(154 49.5) rotate(0 28.56558090686798 0.014642648631678412)"><path d="M28.61 12.48 C38.2 6.61, 48.7 6.06, 56.66 -0.1 M31.2 11.47 C38.61 8.32, 46.76 4.59, 56.67 0.2" stroke="#000000" stroke-width="1" fill="none"></path></g><g transform="translate(154 49.5) rotate(0 28.56558090686798 0.014642648631678412)"><path d="M28.41 -6.67 C38.17 -6.31, 48.73 -0.63, 56.66 -0.1 M30.99 -7.68 C38.57 -4.89, 46.79 -2.69, 56.67 0.2" stroke="#000000" stroke-width="1" fill="none"></path></g></g><mask></mask><g stroke-linecap="round"><g transform="translate(353.38823529411764 46.76063385606119) rotate(0 24.147131889971433 -0.95262025555283)"><path d="M0.27 0.08 C8.38 -0.12, 41.32 -1.83, 49.34 -1.98 M-1.05 -0.93 C6.91 -0.91, 40.67 -0.47, 48.78 -0.8" stroke="#000000" stroke-width="1" fill="none"></path></g><g transform="translate(353.38823529411764 46.76063385606119) rotate(0 24.147131889971433 -0.95262025555283)"><path d="M26.15 8.96 C33.04 4.37, 43.03 3.16, 48.1 -1.59 M26.94 7.26 C32.05 4.7, 37.13 2.9, 49.53 -1.3" stroke="#000000" stroke-width="1" fill="none"></path></g><g transform="translate(353.38823529411764 46.76063385606119) rotate(0 24.147131889971433 -0.95262025555283)"><path d="M25.98 -7.67 C32.82 -6.35, 42.87 -1.64, 48.1 -1.59 M26.77 -9.37 C31.9 -7.65, 37.02 -5.16, 49.53 -1.3" stroke="#000000" stroke-width="1" fill="none"></path></g></g><mask></mask><g stroke-linecap="round" transform="translate(600.5250005825143 11) rotate(0 69.99999999999994 34.5)"><path d="M17.25 0 M17.25 0 C49.63 -0.85, 80.58 1.76, 122.75 0 M17.25 0 C44.29 0.24, 71.95 1.3, 122.75 0 M122.75 0 C132.81 2, 139.1 6.23, 140 17.25 M122.75 0 C136.07 1.44, 139.81 6.34, 140 17.25 M140 17.25 C141.62 27.05, 138.6 34.88, 140 51.75 M140 17.25 C139.88 29.45, 140.6 41.92, 140 51.75 M140 51.75 C140.42 62.2, 135.31 70.46, 122.75 69 M140 51.75 C138.1 63.45, 135.87 70.93, 122.75 69 M122.75 69 C99.87 69.44, 80.73 67.41, 17.25 69 M122.75 69 C83.85 69.21, 44.61 70.94, 17.25 69 M17.25 69 C6.68 69.8, 1.6 63.73, 0 51.75 M17.25 69 C4.58 69.19, -1.69 64.12, 0 51.75 M0 51.75 C-0.95 37.85, 1.07 25.84, 0 17.25 M0 51.75 C0.65 37.6, 0.68 25.41, 0 17.25 M0 17.25 C0.53 6.86, 6.12 -1.68, 17.25 0 M0 17.25 C0.01 4.05, 6.09 -1.3, 17.25 0" stroke="#000000" stroke-width="1" fill="none"></path></g><g transform="translate(605.5500021083932 20.5) rotate(0 64.97499847412104 25)"><text x="64.9749984741211" y="0" font-family="Virgil, Segoe UI Emoji" font-size="20px" fill="#000000" text-anchor="middle" style="white-space: pre;" direction="ltr" dominant-baseline="text-before-edge">Add Label to</text><text x="64.9749984741211" y="25" font-family="Virgil, Segoe UI Emoji" font-size="20px" fill="#000000" text-anchor="middle" style="white-space: pre;" direction="ltr" dominant-baseline="text-before-edge">GT</text></g><g stroke-linecap="round"><g transform="translate(559.5270593169535 43.77083489503781) rotate(0 19.641890961829574 0.09001863147059908)"><path d="M-1.14 0.85 C5.8 0.6, 33.66 -0.39, 40.42 -0.67 M0.46 0.25 C7.38 0.09, 33.39 0.65, 39.7 0.64" stroke="#000000" stroke-width="1" fill="none"></path></g><g transform="translate(559.5270593169535 43.77083489503781) rotate(0 19.641890961829574 0.09001863147059908)"><path d="M22.25 7.98 C23.84 5.15, 27.36 3.25, 39.15 -1.23 M20.38 7.51 C28.8 5.2, 35.06 2.32, 39.34 0.56" stroke="#000000" stroke-width="1" fill="none"></path></g><g transform="translate(559.5270593169535 43.77083489503781) rotate(0 19.641890961829574 0.09001863147059908)"><path d="M22.4 -5.7 C24.05 -5.79, 27.54 -4.96, 39.15 -1.23 M20.53 -6.17 C28.8 -3.3, 35 -1.01, 39.34 0.56" stroke="#000000" stroke-width="1" fill="none"></path></g></g><mask></mask><g stroke-linecap="round" transform="translate(786.0691426764838 13) rotate(0 70 34.5)"><path d="M17.25 0 M17.25 0 C47.48 0.84, 76.88 -0.57, 122.75 0 M17.25 0 C46.73 -0.8, 75.9 0.41, 122.75 0 M122.75 0 C133.12 1.22, 139.3 4.02, 140 17.25 M122.75 0 C132.31 0.02, 142.12 7.1, 140 17.25 M140 17.25 C139.43 27.05, 140.74 36.62, 140 51.75 M140 17.25 C140.46 24.79, 139.32 33.44, 140 51.75 M140 51.75 C138.87 62.82, 134 67.14, 122.75 69 M140 51.75 C140.34 65.36, 136.5 68.43, 122.75 69 M122.75 69 C81.9 69.21, 39.6 69.72, 17.25 69 M122.75 69 C97.05 69.18, 70.06 68.48, 17.25 69 M17.25 69 C6.56 68.99, 1.86 62.32, 0 51.75 M17.25 69 C5.45 67.66, 0.59 61.16, 0 51.75 M0 51.75 C-1.58 41.81, -0.07 35.61, 0 17.25 M0 51.75 C0.92 42.35, 0.01 33.83, 0 17.25 M0 17.25 C-1.97 6.75, 6.18 0.53, 17.25 0 M0 17.25 C-1.6 6.59, 3.77 0.61, 17.25 0" stroke="#000000" stroke-width="1" fill="none"></path></g><g transform="translate(803.3941434394233 22.5) rotate(0 52.67499923706055 25)"><text x="52.67499923706055" y="0" font-family="Virgil, Segoe UI Emoji" font-size="20px" fill="#000000" text-anchor="middle" style="white-space: pre;" direction="ltr" dominant-baseline="text-before-edge">Rasterize </text><text x="52.67499923706055" y="25" font-family="Virgil, Segoe UI Emoji" font-size="20px" fill="#000000" text-anchor="middle" style="white-space: pre;" direction="ltr" dominant-baseline="text-before-edge">GT</text></g><g stroke-linecap="round"><g transform="translate(745.0712014109231 45.77083489503775) rotate(0 19.943455363003523 0.5873355626321484)"><path d="M0.87 -0.56 C7.42 -0.63, 33.33 -0.6, 40.02 -0.49 M-0.13 1.76 C6.2 1.87, 32.26 0.95, 39.09 0.91" stroke="#000000" stroke-width="1" fill="none"></path></g><g transform="translate(745.0712014109231 45.77083489503775) rotate(0 19.943455363003523 0.5873355626321484)"><path d="M19.52 8.19 C26.68 7.14, 34.27 3.07, 37.99 0.74 M20.09 7.29 C26.49 5.38, 35.1 3.3, 39.16 1.45" stroke="#000000" stroke-width="1" fill="none"></path></g><g transform="translate(745.0712014109231 45.77083489503775) rotate(0 19.943455363003523 0.5873355626321484)"><path d="M19.22 -5.49 C26.48 -1.65, 34.18 -0.83, 37.99 0.74 M19.8 -6.39 C26.23 -3.27, 34.95 -0.33, 39.16 1.45" stroke="#000000" stroke-width="1" fill="none"></path></g></g><mask></mask><g stroke-linecap="round" transform="translate(969.0691426764838 13) rotate(0 70 34.5)"><path d="M17.25 0 M17.25 0 C53.74 -1.84, 91.9 -1.13, 122.75 0 M17.25 0 C52.6 0.5, 87.87 1.7, 122.75 0 M122.75 0 C135.14 0.77, 138.74 5.93, 140 17.25 M122.75 0 C135.79 1.79, 137.78 5.91, 140 17.25 M140 17.25 C140.75 30.96, 141.47 42.76, 140 51.75 M140 17.25 C140.64 31.25, 140.87 43.28, 140 51.75 M140 51.75 C138.25 63.88, 132.77 69.66, 122.75 69 M140 51.75 C140.61 61.64, 132 66.83, 122.75 69 M122.75 69 C90.88 68.92, 58.64 67.71, 17.25 69 M122.75 69 C90.84 69.01, 59.66 68.11, 17.25 69 M17.25 69 C7.14 68.6, 0.93 64.1, 0 51.75 M17.25 69 C4.67 69.38, 2.16 64.7, 0 51.75 M0 51.75 C1.71 41.68, 1.2 28.78, 0 17.25 M0 51.75 C-0.34 42.67, -0.12 33.76, 0 17.25 M0 17.25 C-1.56 5.5, 5.03 1.7, 17.25 0 M0 17.25 C0.89 3.79, 4.89 1.55, 17.25 0" stroke="#000000" stroke-width="1" fill="none"></path></g><g transform="translate(983.9274762641303 22.5) rotate(0 55.141666412353516 25)"><text x="55.141666412353516" y="0" font-family="Virgil, Segoe UI Emoji" font-size="20px" fill="#000000" text-anchor="middle" style="white-space: pre;" direction="ltr" dominant-baseline="text-before-edge">Transform </text><text x="55.141666412353516" y="25" font-family="Virgil, Segoe UI Emoji" font-size="20px" fill="#000000" text-anchor="middle" style="white-space: pre;" direction="ltr" dominant-baseline="text-before-edge">Dates</text></g><g stroke-linecap="round"><g transform="translate(928.0712014109231 45.77083489503775) rotate(0 19.535784992728395 -0.8542904643861107)"><path d="M-0.68 -0.47 C5.81 -0.32, 32.9 0.29, 39.75 0.17 M1.17 -1.77 C7.41 -1.92, 32.22 -1.97, 38.67 -1.74" stroke="#000000" stroke-width="1" fill="none"></path></g><g transform="translate(928.0712014109231 45.77083489503775) rotate(0 19.535784992728395 -0.8542904643861107)"><path d="M18.99 4.43 C27.45 3.25, 32.09 0.36, 37.95 -1.37 M19.16 4.93 C27.68 3.02, 33.3 -0.22, 39.53 -2.6" stroke="#000000" stroke-width="1" fill="none"></path></g><g transform="translate(928.0712014109231 45.77083489503775) rotate(0 19.535784992728395 -0.8542904643861107)"><path d="M19.19 -9.25 C27.48 -5.4, 32.05 -3.26, 37.95 -1.37 M19.35 -8.75 C27.86 -5.4, 33.41 -3.39, 39.53 -2.6" stroke="#000000" stroke-width="1" fill="none"></path></g></g><mask></mask><g stroke-linecap="round" transform="translate(1156.0691426764838 14) rotate(0 70 34.5)"><path d="M17.25 0 M17.25 0 C55.81 -1.69, 92.15 0.58, 122.75 0 M17.25 0 C54.11 -1.11, 90.9 -0.58, 122.75 0 M122.75 0 C133.94 -1.35, 140.42 6.07, 140 17.25 M122.75 0 C135.17 0.17, 139.56 6.8, 140 17.25 M140 17.25 C140.56 30.01, 139.46 39.76, 140 51.75 M140 17.25 C140.14 28.8, 140.2 38.66, 140 51.75 M140 51.75 C141.56 63.4, 133.14 68.91, 122.75 69 M140 51.75 C137.88 63.27, 133.38 69.94, 122.75 69 M122.75 69 C91.11 68.98, 58.12 67.57, 17.25 69 M122.75 69 C97.19 70.19, 72.09 70.56, 17.25 69 M17.25 69 C4.75 67.28, 1.82 64.86, 0 51.75 M17.25 69 C5.91 67.18, 2.27 63.9, 0 51.75 M0 51.75 C0.51 41.24, 0.72 27.04, 0 17.25 M0 51.75 C-0.03 41.08, 0.42 31.4, 0 17.25 M0 17.25 C-0.64 4.53, 4.8 0.06, 17.25 0 M0 17.25 C-1.42 3.71, 5.46 0.63, 17.25 0" stroke="#000000" stroke-width="1" fill="none"></path></g><g transform="translate(1186.2858098517768 23.5) rotate(0 39.78333282470703 25)"><text x="39.78333282470703" y="0" font-family="Virgil, Segoe UI Emoji" font-size="20px" fill="#000000" text-anchor="middle" style="white-space: pre;" direction="ltr" dominant-baseline="text-before-edge">Save </text><text x="39.78333282470703" y="25" font-family="Virgil, Segoe UI Emoji" font-size="20px" fill="#000000" text-anchor="middle" style="white-space: pre;" direction="ltr" dominant-baseline="text-before-edge">Patches</text></g><g stroke-linecap="round"><g transform="translate(1115.071201410923 46.77083489503775) rotate(0 20.14534656495232 -0.698339245466002)"><path d="M-0.54 -0.38 C6.12 -0.4, 34.08 0.25, 40.83 0.38 M1.38 -1.63 C7.87 -2.04, 34.03 -1.42, 40.31 -1.43" stroke="#000000" stroke-width="1" fill="none"></path></g><g transform="translate(1115.071201410923 46.77083489503775) rotate(0 20.14534656495232 -0.698339245466002)"><path d="M20.8 6.57 C29.52 2.64, 36.59 -0.01, 39.14 -2.16 M21.65 5.35 C27.39 3.45, 32.34 1.88, 40.65 -1.27" stroke="#000000" stroke-width="1" fill="none"></path></g><g transform="translate(1115.071201410923 46.77083489503775) rotate(0 20.14534656495232 -0.698339245466002)"><path d="M20.96 -7.11 C29.68 -5.9, 36.68 -3.4, 39.14 -2.16 M21.81 -8.33 C27.48 -6.21, 32.39 -3.76, 40.65 -1.27" stroke="#000000" stroke-width="1" fill="none"></path></g></g><mask></mask></svg>