<svg version="1.1" xmlns="http://www.w3.org/2000/svg" viewBox="0 0 554 91.5" width="554" height="91.5">
  <!-- svg-source:excalidraw -->
  
  <defs>
    <style class="style-fonts">
      @font-face {
        font-family: "Virgil";
        src: url("https://excalidraw.com/Virgil.woff2");
      }
      @font-face {
        font-family: "Cascadia";
        src: url("https://excalidraw.com/Cascadia.woff2");
      }
    </style>
  </defs>
  <rect x="0" y="0" width="554" height="91.5" fill="#ffffff"></rect><g stroke-linecap="round" transform="translate(10 12.5) rotate(0 70 34.5)"><path d="M17.25 0 M17.25 0 C38.78 0.26, 62.55 -1.39, 122.75 0 M17.25 0 C53.58 -0.06, 90.27 -0.25, 122.75 0 M122.75 0 C132.88 -0.55, 140.25 6.56, 140 17.25 M122.75 0 C135.97 -2.02, 138.21 3.84, 140 17.25 M140 17.25 C139.61 27.12, 140.87 34.93, 140 51.75 M140 17.25 C139.58 30.01, 140.04 44.9, 140 51.75 M140 51.75 C140.45 61.66, 133.27 68.58, 122.75 69 M140 51.75 C141.95 63.12, 134.3 69.04, 122.75 69 M122.75 69 C83.36 69.79, 47.26 70.47, 17.25 69 M122.75 69 C81.96 69.53, 41.46 68.9, 17.25 69 M17.25 69 C5.27 70.04, -0.08 65.14, 0 51.75 M17.25 69 C6.84 69.05, -1.38 61.3, 0 51.75 M0 51.75 C0.77 45.18, -2.06 38.03, 0 17.25 M0 51.75 C-0.73 38.99, -0.57 26.03, 0 17.25 M0 17.25 C1.6 5.22, 3.86 0.82, 17.25 0 M0 17.25 C1.83 3.55, 5.59 -2.21, 17.25 0" stroke="#000000" stroke-width="1" fill="none"></path></g><g transform="translate(24.325000762939453 34.5) rotate(0 55.67499923706055 12.5)"><text x="55.67499923706055" y="0" font-family="Virgil, Segoe UI Emoji" font-size="20px" fill="#000000" text-anchor="middle" style="white-space: pre;" direction="ltr" dominant-baseline="text-before-edge">Load Data</text></g><g stroke-linecap="round" transform="translate(210 11) rotate(0 70 34.5)"><path d="M17.25 0 M17.25 0 C55.55 -1.56, 90.45 -2.44, 122.75 0 M17.25 0 C55.82 -1.27, 91.84 -0.6, 122.75 0 M122.75 0 C135.84 -1.91, 139.87 3.83, 140 17.25 M122.75 0 C135 1.94, 138.98 7.23, 140 17.25 M140 17.25 C138.34 25.48, 139.06 37.44, 140 51.75 M140 17.25 C139.92 25.58, 140.38 34.65, 140 51.75 M140 51.75 C139.79 64.21, 133.04 69.36, 122.75 69 M140 51.75 C138.52 62.59, 134.03 69.16, 122.75 69 M122.75 69 C89.89 69.62, 55.7 69.43, 17.25 69 M122.75 69 C92.26 67.99, 63.09 68.4, 17.25 69 M17.25 69 C7.53 67.07, -0.24 62.23, 0 51.75 M17.25 69 C6.15 67.35, -0.06 61.32, 0 51.75 M0 51.75 C0.47 41.87, 0.51 31.83, 0 17.25 M0 51.75 C0.02 40.36, 0.81 28.54, 0 17.25 M0 17.25 C-1.99 3.78, 5.48 -0.54, 17.25 0 M0 17.25 C0.82 6.71, 4.12 -1.05, 17.25 0" stroke="#000000" stroke-width="1" fill="none"></path></g><g transform="translate(240.07500076293945 20.5) rotate(0 39.92499923706055 25)"><text x="39.92499923706055" y="0" font-family="Virgil, Segoe UI Emoji" font-size="20px" fill="#000000" text-anchor="middle" style="white-space: pre;" direction="ltr" dominant-baseline="text-before-edge">Predict </text><text x="39.92499923706055" y="25" font-family="Virgil, Segoe UI Emoji" font-size="20px" fill="#000000" text-anchor="middle" style="white-space: pre;" direction="ltr" dominant-baseline="text-before-edge">Classes</text></g><g stroke-linecap="round" transform="translate(404 10) rotate(0 70 34.5)"><path d="M17.25 0 M17.25 0 C59.46 0.41, 102.34 1.97, 122.75 0 M17.25 0 C51.92 0.77, 87.21 1.46, 122.75 0 M122.75 0 C132.83 -0.92, 141.52 7.25, 140 17.25 M122.75 0 C136.39 1.41, 139.59 4.21, 140 17.25 M140 17.25 C139.41 28.21, 140.65 37.45, 140 51.75 M140 17.25 C139.22 28.32, 139.15 40.03, 140 51.75 M140 51.75 C140.86 64.29, 135.56 69.77, 122.75 69 M140 51.75 C141 63.49, 133.56 67.37, 122.75 69 M122.75 69 C94.26 68.02, 69.58 69.64, 17.25 69 M122.75 69 C100.26 69.7, 77.22 68.59, 17.25 69 M17.25 69 C3.99 69.98, 1.89 61.82, 0 51.75 M17.25 69 C5.6 67.82, -1.21 61.15, 0 51.75 M0 51.75 C-0.13 40.67, -0.21 32.54, 0 17.25 M0 51.75 C-0.08 45.27, -0.6 37.54, 0 17.25 M0 17.25 C-1.34 4.42, 4.2 -1.17, 17.25 0 M0 17.25 C1.16 6.8, 6.99 1.82, 17.25 0" stroke="#000000" stroke-width="1" fill="none"></path></g><g transform="translate(418.7666664123535 32) rotate(0 55.233333587646484 12.5)"><text x="55.233333587646484" y="0" font-family="Virgil, Segoe UI Emoji" font-size="20px" fill="#000000" text-anchor="middle" style="white-space: pre;" direction="ltr" dominant-baseline="text-before-edge">Save Data</text></g><g stroke-linecap="round"><g transform="translate(154 46.5) rotate(0 28.56558090686798 0.014642648631678412)"><path d="M1.05 -1.05 C10.49 -1.23, 47.91 -0.69, 57 -0.38 M0.14 1.01 C9.49 0.95, 47.5 1.31, 56.57 0.96" stroke="#000000" stroke-width="1" fill="none"></path></g><g transform="translate(154 46.5) rotate(0 28.56558090686798 0.014642648631678412)"><path d="M28.61 12.48 C38.2 6.61, 48.7 6.06, 56.66 -0.1 M31.2 11.47 C38.61 8.32, 46.76 4.59, 56.67 0.2" stroke="#000000" stroke-width="1" fill="none"></path></g><g transform="translate(154 46.5) rotate(0 28.56558090686798 0.014642648631678412)"><path d="M28.41 -6.67 C38.17 -6.31, 48.73 -0.63, 56.66 -0.1 M30.99 -7.68 C38.57 -4.89, 46.79 -2.69, 56.67 0.2" stroke="#000000" stroke-width="1" fill="none"></path></g></g><mask></mask><g stroke-linecap="round"><g transform="translate(354 44.5) rotate(0 24.34124953703025 -0.8013427931815329)"><path d="M0.27 0.08 C8.45 -0.07, 41.64 -1.58, 49.73 -1.68 M-1.05 -0.93 C6.97 -0.86, 41 -0.21, 49.17 -0.5" stroke="#000000" stroke-width="1" fill="none"></path></g><g transform="translate(354 44.5) rotate(0 24.34124953703025 -0.8013427931815329)"><path d="M26.3 9.19 C33.28 4.62, 43.35 3.44, 48.49 -1.29 M27.09 7.49 C32.27 4.94, 37.41 3.16, 49.92 -1" stroke="#000000" stroke-width="1" fill="none"></path></g><g transform="translate(354 44.5) rotate(0 24.34124953703025 -0.8013427931815329)"><path d="M26.24 -7.58 C33.12 -6.18, 43.22 -1.39, 48.49 -1.29 M27.03 -9.27 C32.19 -7.5, 37.35 -4.96, 49.92 -1" stroke="#000000" stroke-width="1" fill="none"></path></g></g><mask></mask></svg>